<svg xmlns="http://www.w3.org/2000/svg" viewBox="0 0 1000 1000"><defs><style>.cls-1,.cls-4{fill:#1d1d1b;}.cls-1,.cls-3,.cls-4,.cls-5,.cls-6{stroke:#1d1d1b;}.cls-1,.cls-2,.cls-5{stroke-miterlimit:10;}.cls-1,.cls-2,.cls-3,.cls-4,.cls-5,.cls-6{stroke-width:29.06px;}.cls-2,.cls-3{fill:#fff;}.cls-2{stroke:#fff;}.cls-3,.cls-4,.cls-6{stroke-linejoin:round;}.cls-5,.cls-6{fill:none;}</style></defs><g id="Logo_BK"><g id="Bart_BK"><path class="cls-1" d="M615.61,867.89l-4.08,30.77s24.44,14,45-3.62l10.64-36.4S646.83,868.34,615.61,867.89Z"/><polygon class="cls-1" points="521.55 804.45 622.47 782.3 626.6 757.95 531.58 777.43 521.55 804.45"/><polygon class="cls-1" points="742.33 801.88 670.79 780.96 667.87 757.95 735.22 776.36 742.33 801.88"/></g><g id="Kopf_BK"><path class="cls-1" d="M81.18,535.22S301.07,304.81,639.36,247c0,0-81-178.94-365.89-140.66C273.47,106.29-9.63,233.25,81.18,535.22Z"/><path class="cls-2" d="M590.79,228.53c-28.9-37.88-98.13-102.67-235.12-106,0,0,82.46,55.93,97.06,145.69l55.47-19.35a265.69,265.69,0,0,1,29-8.31Z"/><path class="cls-3" d="M803.17,287c83.51-6.78,119.29,18.69,119.29,18.69-.19,0,137.58,154.46-153.12,221.68,0,0-40.38-101.17-113.67-165"/><path class="cls-4" d="M99.87,589.93S365.16,305.7,803.17,287a718.68,718.68,0,0,0-81,39.17C624.67,381.93,451.7,473,299.11,436"/><path class="cls-5" d="M110.55,581.68,462,531.74s126-15.14,211.43,25.37c0,0,34.72-28,149.56,2.23,0,0-2.67,46.29-29.37,92.58,0,0-121.08,57-110.4-94.36"/><path class="cls-5" d="M468.53,531.08S483,571.8,485.62,647.47c0,0,145.69,67,174.78-96"/><polyline class="cls-6" points="467.04 535.38 276.07 585.29 110.48 585.29"/><ellipse class="cls-3" cx="266.79" cy="98.57" rx="13.45" ry="3.91" transform="translate(-17.43 109.13) rotate(-22.41)"/></g></g></svg>