<svg xmlns="http://www.w3.org/2000/svg" viewBox="0 0 1704.34 1000"><defs><style>.cls-1,.cls-2,.cls-5{fill:#1d1d1b;}.cls-2,.cls-4,.cls-5,.cls-6,.cls-7{stroke:#1d1d1b;}.cls-2,.cls-3,.cls-6{stroke-miterlimit:10;}.cls-2,.cls-3,.cls-4,.cls-5,.cls-6,.cls-7{stroke-width:25.16px;}.cls-3,.cls-4{fill:#fff;}.cls-3{stroke:#fff;}.cls-4,.cls-5,.cls-7{stroke-linejoin:round;}.cls-6,.cls-7{fill:none;}</style></defs><g id="Logo_Complete_BK"><g id="Text_BK"><path class="cls-1" d="M70.75,773.14V554.93H170.94a67.52,67.52,0,0,1,29.5,6.46,74,74,0,0,1,23.36,17.36A81,81,0,0,1,239,603.18a73.43,73.43,0,0,1,5.38,27.36,80,80,0,0,1-3.69,24.27A73.45,73.45,0,0,1,230,676.17,74.87,74.87,0,0,1,213,692.92l46.1,80.22H193.37l-38.41-67H130.68v67Zm59.93-119.25h37.8a11.06,11.06,0,0,0,7.07-2.76,21.11,21.11,0,0,0,5.68-8,31.09,31.09,0,0,0,2.31-12.6,27.76,27.76,0,0,0-2.61-12.76,21.77,21.77,0,0,0-6.46-7.84,12.92,12.92,0,0,0-7.53-2.76H130.68Z"/><path class="cls-1" d="M278.19,773.14V554.93h59.93V773.14Z"/><path class="cls-1" d="M507.77,626.54a197.39,197.39,0,0,0-19.06-10A160.14,160.14,0,0,0,470,609.64a68.6,68.6,0,0,0-20-3.08q-7.69,0-12.6,2.44a8.48,8.48,0,0,0-4.92,8.22,10.23,10.23,0,0,0,4.92,8.83q4.91,3.36,14,6.1t21.67,6.7a189.37,189.37,0,0,1,35,14q14.76,7.92,22.75,20.25t8,32.74q0,19.49-7.07,32.74a57.15,57.15,0,0,1-19.06,21.16A82.6,82.6,0,0,1,486,771.17a130.28,130.28,0,0,1-30.12,3.5,176.18,176.18,0,0,1-32.73-3.22,220.45,220.45,0,0,1-33-8.92,173.13,173.13,0,0,1-29.2-13.36l25.82-52.56a226.6,226.6,0,0,0,22.43,12,174.88,174.88,0,0,0,22.59,8.3,88.08,88.08,0,0,0,25.05,3.68q9.83,0,13.68-2.49a7.58,7.58,0,0,0,3.84-6.6q0-6.4-6.76-9.92a101.41,101.41,0,0,0-17.68-6.71q-10.9-3.2-24.12-7.48-19.06-6.4-31.35-14.5t-18.13-19.22q-5.85-11.14-5.84-27,0-24.12,11.37-40.29a72.25,72.25,0,0,1,30-24.57,96.3,96.3,0,0,1,40.11-8.39,123.38,123.38,0,0,1,30.89,3.84,199.42,199.42,0,0,1,28,9.37q13.05,5.53,22.89,10.45Z"/><path class="cls-1" d="M610.11,554.93h67l69.46,218.21H685.71l-11.28-42.72H612.78L601.5,773.14H540.34Zm53.78,135.53-20.28-76.83-20.28,76.83Z"/><path class="cls-1" d="M764.69,773.14V554.93H864.88a67.56,67.56,0,0,1,29.51,6.46,74.11,74.11,0,0,1,23.35,17.36A81,81,0,0,1,933,603.18a73.62,73.62,0,0,1,5.37,27.36,80.32,80.32,0,0,1-3.68,24.27,73.48,73.48,0,0,1-10.76,21.36A75,75,0,0,1,907,692.92l46.1,80.22H887.32l-38.42-67H824.62v67Zm59.93-119.25h37.8a11.06,11.06,0,0,0,7.07-2.76,21.23,21.23,0,0,0,5.69-8,31.27,31.27,0,0,0,2.3-12.6,27.76,27.76,0,0,0-2.61-12.76,21.75,21.75,0,0,0-6.45-7.84,13,13,0,0,0-7.53-2.76H824.62Z"/><path class="cls-1" d="M1065.57,774.67q-26.13,0-44.87-8.59a81.08,81.08,0,0,1-30.58-23.63,98.84,98.84,0,0,1-17.37-34.53,149.25,149.25,0,0,1-5.53-41v-112h59.93v112a95.34,95.34,0,0,0,2.15,20.55,57.54,57.54,0,0,0,6.76,17.49,35.49,35.49,0,0,0,11.83,12.12q7.23,4.46,17.68,4.44,10.74,0,18.13-4.44a33.23,33.23,0,0,0,11.83-12.28,62.52,62.52,0,0,0,6.61-17.63,94.6,94.6,0,0,0,2.15-20.25v-112h59.93V667a144.6,144.6,0,0,1-6,42.35,100.15,100.15,0,0,1-18,34.38,80,80,0,0,1-30.58,22.86Q1091.07,774.67,1065.57,774.67Z"/><path class="cls-1" d="M70.7,931.77V822.67h39.64q17.84,0,29.81,7.29a46.28,46.28,0,0,1,18,19.67,62.06,62.06,0,0,1,6,27.43q0,16.61-6.61,28.89A46.82,46.82,0,0,1,138.85,925q-12.07,6.76-28.51,6.76Zm72.07-54.71a43.15,43.15,0,0,0-3.84-18.67,29.53,29.53,0,0,0-11.07-12.6q-7.23-4.53-17.52-4.53H91.9v71.91h18.44q10.6,0,17.75-4.76A30.56,30.56,0,0,0,139,895.5,43.41,43.41,0,0,0,142.77,877.06Z"/><path class="cls-1" d="M256.48,913.17v18.6H180.72V822.67h74.37v18.59H201.93v26.28h45.79v17.21H201.93v28.42Z"/><path class="cls-1" d="M338.07,851.25a23,23,0,0,0-3.92-2.84,60.08,60.08,0,0,0-6.91-3.62,54.3,54.3,0,0,0-8.84-3.07,38.52,38.52,0,0,0-9.68-1.23q-8.61,0-13,3.14a10.48,10.48,0,0,0-4.38,9.09,9.22,9.22,0,0,0,2.76,7,22.4,22.4,0,0,0,8.3,4.43q5.54,1.84,13.83,4a96.62,96.62,0,0,1,18.67,6.34,30.09,30.09,0,0,1,12.14,9.79q4.23,6,4.23,16.13a31.1,31.1,0,0,1-3.23,14.68,27.93,27.93,0,0,1-8.83,10,38,38,0,0,1-12.91,5.66,66,66,0,0,1-15.45,1.76,80.29,80.29,0,0,1-16.28-1.69A83.64,83.64,0,0,1,279,926a77.45,77.45,0,0,1-13.91-7.61l9.38-18.29a29.28,29.28,0,0,0,4.91,3.61,65.33,65.33,0,0,0,8.61,4.46A72.05,72.05,0,0,0,299,912a48.91,48.91,0,0,0,12.14,1.53q8.76,0,13.06-2.81a9.25,9.25,0,0,0,4.31-8.28,9.48,9.48,0,0,0-3.46-7.73,30.64,30.64,0,0,0-9.76-4.9q-6.3-2.06-14.9-4.35a85,85,0,0,1-17.29-6.58,27,27,0,0,1-10.3-9.11q-3.45-5.43-3.46-13.7,0-11.16,5.38-18.74a33.56,33.56,0,0,1,14.45-11.48,50.4,50.4,0,0,1,20.13-3.9,60.19,60.19,0,0,1,14.52,1.69A72.09,72.09,0,0,1,336.69,828a77.1,77.1,0,0,1,10.76,6Z"/><path class="cls-1" d="M367.27,931.77V822.67h21.2v109.1Z"/><path class="cls-1" d="M456.55,932.54a48.34,48.34,0,0,1-20.13-4.23A50.73,50.73,0,0,1,419.9,916.4a56.1,56.1,0,0,1-11.14-17.75,59.08,59.08,0,0,1-4-22,55.18,55.18,0,0,1,4.07-21.13A57.16,57.16,0,0,1,420.05,838a50.57,50.57,0,0,1,16.83-11.84,51.77,51.77,0,0,1,20.9-4.22q15.51,0,26.5,6.45a41.7,41.7,0,0,1,16.52,17.37L485,857.39A28.38,28.38,0,0,0,473.45,845a32.27,32.27,0,0,0-16.29-4.31,27.76,27.76,0,0,0-12.68,2.92,30.5,30.5,0,0,0-9.91,8,35.92,35.92,0,0,0-6.3,11.67,45.06,45.06,0,0,0-2.15,14,42.23,42.23,0,0,0,2.38,14.44,35.88,35.88,0,0,0,6.76,11.6A31.28,31.28,0,0,0,445.48,911a29.72,29.72,0,0,0,12.91,2.77,31.7,31.7,0,0,0,16-4.3,50.31,50.31,0,0,0,14.14-12.6v21.05Q474.83,932.53,456.55,932.54ZM487,891.2H465V875.68h39.49v56.09H487Z"/><path class="cls-1" d="M543.83,861.7v70.07H522.62V822.67h17.06l56.24,71.91V822.82H617V931.77H599.45Z"/></g><g id="Bart_Complete_BK"><path class="cls-2" d="M1338.82,729.22l-3.52,26.64s21.15,12.14,39-3.14l9.21-31.51S1365.85,729.61,1338.82,729.22Z"/><polygon class="cls-2" points="1257.4 674.29 1344.77 655.12 1348.34 634.04 1266.08 650.9 1257.4 674.29"/><polygon class="cls-2" points="1448.54 672.07 1386.6 653.96 1384.07 634.04 1442.38 649.97 1448.54 672.07"/></g><g id="Kopf_Complete_BK"><path class="cls-2" d="M876.14,441.2s190.37-199.47,483.25-249.56c0,0-70.14-154.92-316.77-121.78C1042.62,69.86,797.53,179.78,876.14,441.2Z"/><path class="cls-3" d="M1317.34,175.69c-25-32.79-85-88.89-203.56-91.75,0,0,71.39,48.42,84,126.13l48-16.75a226.71,226.71,0,0,1,25.15-7.19Z"/><path class="cls-4" d="M1501.2,226.32c72.3-5.87,103.28,16.18,103.28,16.18-.16,0,119.11,133.72-132.56,191.92,0,0-35-87.58-98.41-142.83"/><path class="cls-5" d="M892.33,488.57S1122,242.5,1501.2,226.32a621.91,621.91,0,0,0-70.13,33.91c-84.4,48.27-234.14,127.06-366.26,95.07"/><path class="cls-6" d="M901.57,481.43l304.29-43.24s109.06-13.1,183.05,22c0,0,30.06-24.28,129.49,1.93,0,0-2.32,40.07-25.44,80.15,0,0-104.82,49.33-95.57-81.69"/><path class="cls-6" d="M1211.49,437.63s12.49,35.25,14.8,100.76c0,0,126.13,58.05,151.31-83.12"/><polyline class="cls-7" points="1210.2 441.34 1044.87 484.56 901.51 484.56"/><ellipse class="cls-4" cx="1036.83" cy="63.18" rx="11.64" ry="3.39" transform="translate(54.19 399.97) rotate(-22.41)"/></g></g></svg>