<?xml version="1.0" encoding="UTF-8" standalone="no"?>
<svg
   xmlns:dc="http://purl.org/dc/elements/1.1/"
   xmlns:cc="http://creativecommons.org/ns#"
   xmlns:rdf="http://www.w3.org/1999/02/22-rdf-syntax-ns#"
   xmlns:svg="http://www.w3.org/2000/svg"
   xmlns="http://www.w3.org/2000/svg"
   viewBox="0 0 1333.3333 1333.3333"
   height="1333.3333"
   width="1333.3333"
   xml:space="preserve"
   id="svg2"
   version="1.1"><metadata
     id="metadata8"><rdf:RDF><cc:Work
         rdf:about=""><dc:format>image/svg+xml</dc:format><dc:type
           rdf:resource="http://purl.org/dc/dcmitype/StillImage" /></cc:Work></rdf:RDF></metadata><defs
     id="defs6"><clipPath
       id="clipPath20"
       clipPathUnits="userSpaceOnUse"><path
         id="path18"
         d="M 0,1000 H 1000 V 0 H 0 Z" /></clipPath><clipPath
       id="clipPath34"
       clipPathUnits="userSpaceOnUse"><path
         id="path32"
         d="M 0,1000 H 1000 V 0 H 0 Z" /></clipPath><clipPath
       id="clipPath146"
       clipPathUnits="userSpaceOnUse"><path
         id="path144"
         d="M 0,1000 H 1000 V 0 H 0 Z" /></clipPath><clipPath
       id="clipPath214"
       clipPathUnits="userSpaceOnUse"><path
         id="path212"
         d="M 0,1000 H 1000 V 0 H 0 Z" /></clipPath><linearGradient
       id="linearGradient232"
       spreadMethod="pad"
       gradientTransform="matrix(1.02e-5,3.5e-6,3.5e-6,-1.02e-5,285.29895,631.5835)"
       gradientUnits="userSpaceOnUse"
       y2="0"
       x2="1"
       y1="0"
       x1="0"><stop
         id="stop228"
         offset="0"
         style="stop-opacity:1;stop-color:#ffffff" /><stop
         id="stop230"
         offset="1"
         style="stop-opacity:1;stop-color:#2b2b2a" /></linearGradient></defs><g
     transform="matrix(1.3333333,0,0,-1.3333333,0,1333.3333)"
     id="g10"><g
       transform="translate(80.4043,618.8298)"
       id="g24"><path
         id="path26"
         style="fill:#e0bd84;fill-opacity:1;fill-rule:nonzero;stroke:none"
         d="m 0,0 325.277,103.149 81.191,-92.426 81.192,94.469 356.425,-100.596 -79.659,-87.319 82.723,-81.192 -83.234,-34.213 3.064,-141.957 -346.724,-110.298 -339.574,102.128 1.532,150.638 -88.851,30.128 86.808,79.659 z" /></g><g
       id="g28"><g
         clip-path="url(#clipPath34)"
         id="g30"><g
           transform="translate(441.9362,734.2341)"
           id="g36"><path
             id="path38"
             style="fill:#b38250;fill-opacity:1;fill-rule:nonzero;stroke:none"
             d="M 0,0 -33.702,26.043 -64.34,14.298 c 0,0 -10.724,-23.49 -10.724,-25.532 0,-2.043 12.255,-37.787 12.255,-37.787 L -48,-68.936 c 0,0 -3.574,-29.617 -3.574,-31.66 0,-2.042 3.063,-14.298 3.063,-14.298 l -5.106,-12.255 -24,-11.234 -11.745,-18.383 7.66,-28.596 27.574,-17.361 0.511,-17.873 4.596,-33.702 17.361,-25.021 46.979,-19.404 31.66,-9.703 37.787,3.575 42.894,18.894 c 0,0 7.659,27.574 8.17,32.17 0.51,4.595 6.638,39.83 6.638,42.383 0,2.553 2.553,11.234 2.553,11.234 l 22.468,4.595 20.937,14.298 -0.511,22.468 -24.511,29.107 -26.553,5.106 6.128,35.745 1.021,15.319 6.638,18.383 19.405,18.894 -0.511,28.085 c 0,0 -14.809,18.893 -18.894,23.489 -4.085,4.596 -28.595,7.66 -28.595,7.66 L 102.128,11.234 60.255,1.532 Z" /></g><g
           transform="translate(702.8723,825.6383)"
           id="g40"><path
             id="path42"
             style="fill:#67bea5;fill-opacity:1;fill-rule:nonzero;stroke:none"
             d="M 0,0 147.575,-41.872 72.511,-309.957 -102.128,-367.66 Z" /></g><g
           transform="translate(307.6383,657.6383)"
           id="g44"><path
             id="path46"
             style="fill:#8c4e98;fill-opacity:1;fill-rule:nonzero;stroke:none"
             d="M 0,0 66.383,-189.957 -80.17,-144 -114.894,-39.83 Z" /></g></g></g><g
       transform="translate(581.6141,618.2651)"
       id="g48"><path
         id="path50"
         style="fill:none;stroke:#2b2b2a;stroke-width:28.29599953;stroke-linecap:butt;stroke-linejoin:round;stroke-miterlimit:10;stroke-dasharray:none;stroke-opacity:1"
         d="M 0,0 52.758,-15.685" /></g><g
       transform="translate(334.6142,588.2191)"
       id="g52"><path
         id="path54"
         style="fill:none;stroke:#2b2b2a;stroke-width:28.29599953;stroke-linecap:butt;stroke-linejoin:round;stroke-miterlimit:10;stroke-dasharray:none;stroke-opacity:1"
         d="M 0,0 18.653,5.796" /></g><g
       transform="translate(785.3017,557.7091)"
       id="g56"><path
         id="path58"
         style="fill:none;stroke:#2b2b2a;stroke-width:28.29599953;stroke-linecap:butt;stroke-linejoin:round;stroke-miterlimit:10;stroke-dasharray:none;stroke-opacity:1"
         d="m 0,0 58.148,-17.287 -345.27,-112.846 -338.656,106.232 56.207,17.467" /></g><g
       transform="translate(629.1769,583.0355)"
       id="g60"><path
         id="path62"
         style="fill:none;stroke:#2b2b2a;stroke-width:28.29599953;stroke-linecap:butt;stroke-linejoin:round;stroke-miterlimit:10;stroke-dasharray:none;stroke-opacity:1"
         d="M 0,0 68.887,245.411 219.545,203.122 143.813,-66.674" /></g><g
       transform="translate(594.0572,457.9209)"
       id="g64"><path
         id="path66"
         style="fill:none;stroke:#2b2b2a;stroke-width:28.29599953;stroke-linecap:butt;stroke-linejoin:round;stroke-miterlimit:10;stroke-dasharray:none;stroke-opacity:1"
         d="M 0,0 21.483,76.535" /></g><g
       transform="translate(727.6193,509.8685)"
       id="g68"><path
         id="path70"
         style="fill:none;stroke:#2b2b2a;stroke-width:28.29599953;stroke-linecap:butt;stroke-linejoin:round;stroke-miterlimit:10;stroke-dasharray:none;stroke-opacity:1"
         d="M 0,0 37.636,134.078" /></g><g
       transform="translate(637.3872,473.7653)"
       id="g72"><path
         id="path74"
         style="fill:none;stroke:#2b2b2a;stroke-width:25.37299919;stroke-linecap:butt;stroke-linejoin:round;stroke-miterlimit:10;stroke-dasharray:none;stroke-opacity:1"
         d="M 0,0 7.647,27.243" /></g><g
       transform="translate(647.5448,509.952)"
       id="g76"><path
         id="path78"
         style="fill:none;stroke:#2b2b2a;stroke-width:25.37299919;stroke-linecap:butt;stroke-linejoin:round;stroke-miterlimit:10;stroke-dasharray:none;stroke-opacity:1"
         d="M 0,0 7.647,27.243" /></g><g
       transform="translate(657.7025,546.1388)"
       id="g80"><path
         id="path82"
         style="fill:none;stroke:#2b2b2a;stroke-width:25.37299919;stroke-linecap:butt;stroke-linejoin:round;stroke-miterlimit:10;stroke-dasharray:none;stroke-opacity:1"
         d="M 0,0 7.647,27.243" /></g><g
       transform="translate(667.8601,582.3256)"
       id="g84"><path
         id="path86"
         style="fill:none;stroke:#2b2b2a;stroke-width:25.37299919;stroke-linecap:butt;stroke-linejoin:round;stroke-miterlimit:10;stroke-dasharray:none;stroke-opacity:1"
         d="M 0,0 7.647,27.243" /></g><g
       transform="translate(678.0177,618.5123)"
       id="g88"><path
         id="path90"
         style="fill:none;stroke:#2b2b2a;stroke-width:25.37299919;stroke-linecap:butt;stroke-linejoin:round;stroke-miterlimit:10;stroke-dasharray:none;stroke-opacity:1"
         d="M 0,0 7.647,27.243" /></g><g
       transform="translate(688.1754,654.699)"
       id="g92"><path
         id="path94"
         style="fill:none;stroke:#2b2b2a;stroke-width:25.37299919;stroke-linecap:butt;stroke-linejoin:round;stroke-miterlimit:10;stroke-dasharray:none;stroke-opacity:1"
         d="M 0,0 7.647,27.243" /></g><g
       transform="translate(698.3329,690.8858)"
       id="g96"><path
         id="path98"
         style="fill:none;stroke:#2b2b2a;stroke-width:25.37299919;stroke-linecap:butt;stroke-linejoin:round;stroke-miterlimit:10;stroke-dasharray:none;stroke-opacity:1"
         d="M 0,0 7.647,27.243" /></g><g
       transform="translate(708.4906,727.0725)"
       id="g100"><path
         id="path102"
         style="fill:none;stroke:#2b2b2a;stroke-width:25.37299919;stroke-linecap:butt;stroke-linejoin:round;stroke-miterlimit:10;stroke-dasharray:none;stroke-opacity:1"
         d="M 0,0 7.647,27.243" /></g><g
       transform="translate(718.6483,763.2593)"
       id="g104"><path
         id="path106"
         style="fill:none;stroke:#2b2b2a;stroke-width:25.37299919;stroke-linecap:butt;stroke-linejoin:round;stroke-miterlimit:10;stroke-dasharray:none;stroke-opacity:1"
         d="M 0,0 7.647,27.243" /></g><g
       transform="translate(683.5874,499.8349)"
       id="g108"><path
         id="path110"
         style="fill:none;stroke:#2b2b2a;stroke-width:25.37299919;stroke-linecap:butt;stroke-linejoin:round;stroke-miterlimit:10;stroke-dasharray:none;stroke-opacity:1"
         d="M 0,0 7.647,27.243" /></g><g
       transform="translate(693.7451,536.0216)"
       id="g112"><path
         id="path114"
         style="fill:none;stroke:#2b2b2a;stroke-width:25.37299919;stroke-linecap:butt;stroke-linejoin:round;stroke-miterlimit:10;stroke-dasharray:none;stroke-opacity:1"
         d="M 0,0 7.647,27.243" /></g><g
       transform="translate(703.9026,572.2084)"
       id="g116"><path
         id="path118"
         style="fill:none;stroke:#2b2b2a;stroke-width:25.37299919;stroke-linecap:butt;stroke-linejoin:round;stroke-miterlimit:10;stroke-dasharray:none;stroke-opacity:1"
         d="M 0,0 7.647,27.243" /></g><g
       transform="translate(714.0603,608.3951)"
       id="g120"><path
         id="path122"
         style="fill:none;stroke:#2b2b2a;stroke-width:25.37299919;stroke-linecap:butt;stroke-linejoin:round;stroke-miterlimit:10;stroke-dasharray:none;stroke-opacity:1"
         d="M 0,0 7.647,27.243" /></g><g
       transform="translate(724.2179,644.5818)"
       id="g124"><path
         id="path126"
         style="fill:none;stroke:#2b2b2a;stroke-width:25.37299919;stroke-linecap:butt;stroke-linejoin:round;stroke-miterlimit:10;stroke-dasharray:none;stroke-opacity:1"
         d="M 0,0 7.647,27.243" /></g><g
       transform="translate(734.3755,680.7686)"
       id="g128"><path
         id="path130"
         style="fill:none;stroke:#2b2b2a;stroke-width:25.37299919;stroke-linecap:butt;stroke-linejoin:round;stroke-miterlimit:10;stroke-dasharray:none;stroke-opacity:1"
         d="M 0,0 7.647,27.243" /></g><g
       transform="translate(744.5332,716.9554)"
       id="g132"><path
         id="path134"
         style="fill:none;stroke:#2b2b2a;stroke-width:25.37299919;stroke-linecap:butt;stroke-linejoin:round;stroke-miterlimit:10;stroke-dasharray:none;stroke-opacity:1"
         d="M 0,0 7.647,27.243" /></g><g
       transform="translate(754.6908,753.1421)"
       id="g136"><path
         id="path138"
         style="fill:none;stroke:#2b2b2a;stroke-width:25.37299919;stroke-linecap:butt;stroke-linejoin:round;stroke-miterlimit:10;stroke-dasharray:none;stroke-opacity:1"
         d="M 0,0 7.647,27.243" /></g><g
       id="g140"><g
         clip-path="url(#clipPath146)"
         id="g142"><g
           transform="translate(584.235,530.028)"
           id="g148"><path
             id="path150"
             style="fill:none;stroke:#2b2b2a;stroke-width:28.29599953;stroke-linecap:butt;stroke-linejoin:miter;stroke-miterlimit:10;stroke-dasharray:none;stroke-opacity:1"
             d="M 0,0 C 0.483,-5.011 0.703,-10.115 0.645,-15.294 0.392,-37.747 -5.069,-58.692 -14.356,-76.527" /></g><g
           transform="translate(395.3687,459.8354)"
           id="g152"><path
             id="path154"
             style="fill:none;stroke:#2b2b2a;stroke-width:28.29599953;stroke-linecap:butt;stroke-linejoin:miter;stroke-miterlimit:10;stroke-dasharray:none;stroke-opacity:1"
             d="m 0,0 c -7.59,17.03 -11.792,36.508 -11.56,57.161 0.05,4.402 0.3,8.746 0.739,13.02" /></g><g
           transform="translate(538.0354,734.6141)"
           id="g156"><path
             id="path158"
             style="fill:none;stroke:#2b2b2a;stroke-width:28.29599953;stroke-linecap:butt;stroke-linejoin:miter;stroke-miterlimit:10;stroke-dasharray:none;stroke-opacity:1"
             d="M 0,0 C 7.275,13.018 21.26,21.752 37.221,21.572 60.453,21.311 79.074,2.266 78.813,-20.966 78.592,-40.597 64.96,-56.935 46.723,-61.371" /></g><g
           transform="translate(628.8986,566.5016)"
           id="g160"><path
             id="path162"
             style="fill:none;stroke:#2b2b2a;stroke-width:28.29599953;stroke-linecap:butt;stroke-linejoin:miter;stroke-miterlimit:10;stroke-dasharray:none;stroke-opacity:1"
             d="m 0,0 c -0.218,-19.36 -16.089,-34.878 -35.449,-34.66 -19.36,0.218 -34.877,16.089 -34.659,35.449 0.217,19.36 16.088,34.878 35.448,34.66 C -15.3,35.231 0.218,19.36 0,0 Z" /></g><g
           transform="translate(415.2485,569.2311)"
           id="g164"><path
             id="path166"
             style="fill:none;stroke:#2b2b2a;stroke-width:28.29599953;stroke-linecap:butt;stroke-linejoin:miter;stroke-miterlimit:10;stroke-dasharray:none;stroke-opacity:1"
             d="m 0,0 c -0.218,-19.36 -16.089,-34.878 -35.449,-34.66 -19.36,0.218 -34.877,16.089 -34.659,35.449 0.217,19.36 16.088,34.878 35.448,34.66 C -15.3,35.231 0.218,19.36 0,0 Z" /></g><g
           transform="translate(391.6309,676.0818)"
           id="g168"><path
             id="path170"
             style="fill:none;stroke:#2b2b2a;stroke-width:28.29599953;stroke-linecap:butt;stroke-linejoin:miter;stroke-miterlimit:10;stroke-dasharray:none;stroke-opacity:1"
             d="m 0,0 c -16.934,5.594 -29.067,21.641 -28.856,40.425 0.262,23.232 19.307,41.853 42.539,41.592 15.566,-0.175 29.063,-8.784 36.196,-21.434" /></g><g
           transform="translate(586.3713,647.2391)"
           id="g172"><path
             id="path174"
             style="fill:none;stroke:#2b2b2a;stroke-width:28.29599953;stroke-linecap:butt;stroke-linejoin:miter;stroke-miterlimit:10;stroke-dasharray:none;stroke-opacity:1"
             d="m 0,0 c -0.61,-54.208 -45.049,-97.657 -99.256,-97.047 -54.208,0.61 -97.658,45.048 -97.048,99.256 0.61,54.208 45.049,97.657 99.257,97.047 C -42.839,98.646 0.61,54.208 0,0 Z" /></g><g
           transform="translate(456.2386,672.6136)"
           id="g176"><path
             id="path178"
             style="fill:#2b2b2a;fill-opacity:1;fill-rule:nonzero;stroke:none"
             d="m 0,0 c -0.09,-8.015 -6.661,-14.439 -14.676,-14.349 -8.015,0.09 -14.439,6.661 -14.349,14.676 0.09,8.015 6.661,14.439 14.676,14.349 C -6.334,14.586 0.09,8.015 0,0" /></g><g
           transform="translate(551.5861,671.5405)"
           id="g180"><path
             id="path182"
             style="fill:#2b2b2a;fill-opacity:1;fill-rule:nonzero;stroke:none"
             d="m 0,0 c -0.09,-8.015 -6.661,-14.439 -14.676,-14.349 -8.015,0.09 -14.439,6.661 -14.349,14.676 0.09,8.015 6.661,14.439 14.676,14.349 C -6.334,14.586 0.09,8.015 0,0" /></g><g
           transform="translate(441.7916,610.1263)"
           id="g184"><path
             id="path186"
             style="fill:none;stroke:#2b2b2a;stroke-width:12.1960001;stroke-linecap:round;stroke-linejoin:miter;stroke-miterlimit:10;stroke-dasharray:none;stroke-opacity:1"
             d="m 0,0 3.945,-2.879 c 27.042,-19.103 56.286,-19.433 81.785,-0.92 l 4.009,2.789" /></g><g
           transform="translate(486.893,630.2332)"
           id="g188"><path
             id="path190"
             style="fill:none;stroke:#2b2b2a;stroke-width:12.1960001;stroke-linecap:round;stroke-linejoin:miter;stroke-miterlimit:10;stroke-dasharray:none;stroke-opacity:1"
             d="M 0,0 -0.424,-37.648" /></g><g
           transform="translate(481.1276,646.6004)"
           id="g192"><path
             id="path194"
             style="fill:#2b2b2a;fill-opacity:1;fill-rule:nonzero;stroke:none"
             d="m 0,0 11.864,-0.133 c 5.705,-0.065 9.073,-4.16 5.894,-7.168 l -6.067,-5.74 c -2.825,-2.673 -9.035,-2.598 -11.788,0.142 L -6.035,-6.99 C -9.115,-3.926 -5.67,0.064 0,0" /></g><g
           transform="translate(481.1276,646.6004)"
           id="g196"><path
             id="path198"
             style="fill:none;stroke:#2b2b2a;stroke-width:10.99199963;stroke-linecap:round;stroke-linejoin:round;stroke-miterlimit:10;stroke-dasharray:none;stroke-opacity:1"
             d="m 0,0 11.864,-0.133 c 5.705,-0.065 9.073,-4.16 5.894,-7.168 l -6.067,-5.74 c -2.825,-2.673 -9.035,-2.598 -11.788,0.142 L -6.035,-6.99 C -9.115,-3.926 -5.67,0.064 0,0 Z" /></g></g></g><g
       transform="translate(225.9771,514.3307)"
       id="g200"><path
         id="path202"
         style="fill:none;stroke:#2b2b2a;stroke-width:20.72500038;stroke-linecap:round;stroke-linejoin:round;stroke-miterlimit:10;stroke-dasharray:none;stroke-opacity:1"
         d="m 0,0 -36.015,104.985 118.27,40.572 65.722,-191.583" /></g><g
       transform="translate(236.7063,614.9139)"
       id="g204"><path
         id="path206"
         style="fill:none;stroke:#2b2b2a;stroke-width:12.1960001;stroke-linecap:round;stroke-linejoin:round;stroke-miterlimit:10;stroke-dasharray:none;stroke-opacity:1"
         d="M 0,0 37.327,12.805" /></g><g
       id="g208"><g
         clip-path="url(#clipPath214)"
         id="g210"><g
           id="g216"><g
             id="g218"><g
               id="g224"><g
                 id="g226"><path
                   id="path234"
                   style="fill:url(#linearGradient232);stroke:none"
                   d="" /></g></g></g></g></g></g><g
       transform="translate(285.299,631.5835)"
       id="g236"><path
         id="path238"
         style="fill:none;stroke:#2b2b2a;stroke-width:12.1960001;stroke-linecap:round;stroke-linejoin:round;stroke-miterlimit:10;stroke-dasharray:none;stroke-opacity:1"
         d="M 0,0 V 0" /></g><g
       transform="translate(159.5237,416.617)"
       id="g240"><path
         id="path242"
         style="fill:none;stroke:#2b2b2a;stroke-width:28.29599953;stroke-linecap:butt;stroke-linejoin:round;stroke-miterlimit:10;stroke-dasharray:none;stroke-opacity:1"
         d="M 0,0 V -142.342" /></g><g
       transform="translate(843.4495,418.1489)"
       id="g244"><path
         id="path246"
         style="fill:none;stroke:#2b2b2a;stroke-width:28.29599953;stroke-linecap:butt;stroke-linejoin:round;stroke-miterlimit:10;stroke-dasharray:none;stroke-opacity:1"
         d="m 0,0 v -137.261 l -345.27,-112.845 -338.656,106.232 338.656,-106.232 V 11.163" /></g><g
       transform="translate(816.1765,659.6174)"
       id="g248"><path
         id="path250"
         style="fill:none;stroke:#2b2b2a;stroke-width:28.29599953;stroke-linecap:round;stroke-linejoin:round;stroke-miterlimit:10;stroke-dasharray:none;stroke-opacity:1"
         d="m 0,0 113.043,-33.644 -87.35,-84.854" /></g><g
       transform="translate(618.5406,718.4376)"
       id="g252"><path
         id="path254"
         style="fill:none;stroke:#2b2b2a;stroke-width:28.29599953;stroke-linecap:round;stroke-linejoin:round;stroke-miterlimit:10;stroke-dasharray:none;stroke-opacity:1"
         d="M 0,0 41.86,-12.458" /></g><g
       transform="translate(361.7708,707.0157)"
       id="g256"><path
         id="path258"
         style="fill:none;stroke:#2b2b2a;stroke-width:28.29599953;stroke-linecap:round;stroke-linejoin:round;stroke-miterlimit:10;stroke-dasharray:none;stroke-opacity:1"
         d="m 0,0 -287.081,-85.441 87.35,-84.854" /></g><g
       transform="translate(835.9375,538.5143)"
       id="g260"><path
         id="path262"
         style="fill:none;stroke:#2b2b2a;stroke-width:28.29599953;stroke-linecap:round;stroke-linejoin:round;stroke-miterlimit:10;stroke-dasharray:none;stroke-opacity:1"
         d="m 0,0 92.182,-79.578 -328.982,-119.354 -92.182,79.578" /></g><g
       transform="translate(493.3085,423.486)"
       id="g264"><path
         id="path266"
         style="fill:none;stroke:#2b2b2a;stroke-width:28.29599953;stroke-linecap:round;stroke-linejoin:round;stroke-miterlimit:10;stroke-dasharray:none;stroke-opacity:1"
         d="m 0,0 -90.43,-81.564 -331.499,112.17 90.429,81.565" /></g><g
       transform="translate(843.4495,540.4219)"
       id="g268"><path
         id="path270"
         style="fill:none;stroke:#2b2b2a;stroke-width:28.29599953;stroke-linecap:butt;stroke-linejoin:round;stroke-miterlimit:10;stroke-dasharray:none;stroke-opacity:1"
         d="M 0,0 -345.27,-112.846 -683.926,-6.614" /></g></g></svg>
